<?xml version="1.0" encoding="UTF-8"?>
<svg width="865px" height="458px" viewBox="0 0 865 458" version="1.1" xmlns="http://www.w3.org/2000/svg" xmlns:xlink="http://www.w3.org/1999/xlink">
    <!-- Generator: Sketch 52.2 (67145) - http://www.bohemiancoding.com/sketch -->
    <title>Group 4</title>
    <desc>Created with Sketch.</desc>
    <g id="Welcome" stroke="none" stroke-width="1" fill="none" fill-rule="evenodd">
        <g id="Desktop" transform="translate(-104.000000, -55.000000)">
            <g id="Group-4" transform="translate(79.000000, 51.000000)">
                <g id="Group" transform="translate(0.000000, 22.000000)">
                    <path id="Line" d="M268.685714,176.5 L60.8142857,176.5 L59.3142857,176.5 L59.3142857,173.5 L60.8142857,173.5 L268.685714,173.5 L268.685714,165.5 L287.685714,175 L268.685714,184.5 L268.685714,176.5 Z" fill="#F39325" fill-rule="nonzero"></path>
                    <text id="Unit-0-Around-the-Ho" font-family="Lato-Bold, Lato" font-size="18" font-weight="bold" fill="#373030">
                        <tspan x="61" y="18"></tspan>
                        <tspan x="61" y="40" font-size="30">Unit 0</tspan>
                        <tspan x="143.665" y="40"></tspan>
                        <tspan x="61" y="76" font-size="15">Around the House, </tspan>
                        <tspan x="61" y="94" font-size="15">Everyday Algorithms, </tspan>
                        <tspan x="61" y="112" font-size="15">Tech spotlight</tspan>
                    </text>
                    <text id="Problem-sets" transform="translate(25.000000, 99.000000) rotate(-90.000000) translate(-25.000000, -99.000000) " font-family="Lato-Bold, Lato" font-size="18" font-weight="bold">
                        <tspan x="-14" y="92" fill="#373030"></tspan>
                        <tspan x="-14" y="114" font-size="12" fill="#F39325">Problem sets</tspan>
                    </text>
                    <path id="Line" d="M495.685714,176.5 L287.814286,176.5 L286.314286,176.5 L286.314286,173.5 L287.814286,173.5 L495.685714,173.5 L495.685714,165.5 L514.685714,175 L495.685714,184.5 L495.685714,176.5 Z" fill="#F39325" fill-rule="nonzero"></path>
                    <text id="Unit-1-Scratch,-Hell" font-family="Lato-Bold, Lato" font-size="18" font-weight="bold" fill="#373030">
                        <tspan x="288" y="18"></tspan>
                        <tspan x="288" y="40" font-size="30">Unit 1</tspan>
                        <tspan x="370.665" y="40"></tspan>
                        <tspan x="288" y="76" font-size="15">Scratch, Hello, </tspan>
                        <tspan x="288" y="94" font-size="15">Fahrenheit, </tspan>
                        <tspan x="288" y="112" font-size="15">Cash, Pennies, </tspan>
                        <tspan x="288" y="130" font-size="15">ISBN, Credit, Mario</tspan>
                    </text>
                    <text id="C-programavimo-kalba" font-family="Lato-Bold, Lato" font-size="12" font-weight="bold" fill="#373030">
                        <tspan x="768" y="69">C  programavimo kalba</tspan>
                        <tspan x="890.628" y="69" font-size="15"></tspan>
                    </text>
                    <path id="Line" d="M718.685714,176.5 L510.814286,176.5 L509.314286,176.5 L509.314286,173.5 L510.814286,173.5 L718.685714,173.5 L718.685714,165.5 L737.685714,175 L718.685714,184.5 L718.685714,176.5 Z" fill="#F39325" fill-rule="nonzero"></path>
                    <text id="Unit-2-“Me,Myself,-a" font-family="Lato-Bold, Lato" font-size="15" font-weight="bold" fill="#373030">
                        <tspan x="511" y="15"></tspan>
                        <tspan x="511" y="33" font-size="30">Unit 2</tspan>
                        <tspan x="511" y="69">“Me,Myself, and UI”, </tspan>
                        <tspan x="511" y="87">Reverse Engineer, Initials, </tspan>
                        <tspan x="511" y="105">Old Friends, Calc, Caesar, </tspan>
                        <tspan x="511" y="123">Vigenere, Crack</tspan>
                    </text>
                    <path id="Line" d="M268.685714,176.5 L60.8142857,176.5 L59.3142857,176.5 L59.3142857,173.5 L60.8142857,173.5 L268.685714,173.5 L268.685714,165.5 L287.685714,175 L268.685714,184.5 L268.685714,176.5 Z" fill="#F39325" fill-rule="nonzero"></path>
                    <text id="iki-spalio-1d." font-family="Lato-Bold, Lato" font-size="15" font-weight="bold" fill="#373030">
                        <tspan x="103" y="200">iki spalio 1d.</tspan>
                    </text>
                    <text id="iki-gruodžio-1d." font-family="Lato-Bold, Lato" font-size="15" font-weight="bold" fill="#373030">
                        <tspan x="316" y="200">iki gruodžio 1d.</tspan>
                    </text>
                    <path id="Line" d="M495.685714,176.5 L287.814286,176.5 L286.314286,176.5 L286.314286,173.5 L287.814286,173.5 L495.685714,173.5 L495.685714,165.5 L514.685714,175 L495.685714,184.5 L495.685714,176.5 Z" fill="#F39325" fill-rule="nonzero"></path>
                    <path id="Line" d="M718.685714,176.5 L510.814286,176.5 L509.314286,176.5 L509.314286,173.5 L510.814286,173.5 L718.685714,173.5 L718.685714,165.5 L737.685714,175 L718.685714,184.5 L718.685714,176.5 Z" fill="#F39325" fill-rule="nonzero"></path>
                    <text id="iki-vasario-1d." font-family="Lato-Bold, Lato" font-size="15" font-weight="bold" fill="#373030">
                        <tspan x="544" y="200">iki vasario 1d</tspan>
                        <tspan x="631.9" y="200" letter-spacing="-1.68992075">.</tspan>
                    </text>
                    <path id="Line" d="M268.685714,413.5 L60.8142857,413.5 L59.3142857,413.5 L59.3142857,410.5 L60.8142857,410.5 L268.685714,410.5 L268.685714,402.5 L287.685714,412 L268.685714,421.5 L268.685714,413.5 Z" fill="#F39325" fill-rule="nonzero"></path>
                    <text id="Unit-3-Fifteen,-Find" font-family="Lato-Bold, Lato" font-size="18" font-weight="bold" fill="#373030">
                        <tspan x="61" y="255"></tspan>
                        <tspan x="61" y="277" font-size="30">Unit 3</tspan>
                        <tspan x="143.665" y="277"></tspan>
                        <tspan x="61" y="313" font-size="15">Fifteen, Find, Sort Race, </tspan>
                        <tspan x="61" y="331" font-size="15">Analyze This, </tspan>
                        <tspan x="61" y="349" font-size="15">Scramble (Part 1), </tspan>
                        <tspan x="61" y="367" font-size="15">Stimulate!</tspan>
                    </text>
                    <text id="Problem-sets" transform="translate(25.000000, 336.000000) rotate(-90.000000) translate(-25.000000, -336.000000) " font-family="Lato-Bold, Lato" font-size="18" font-weight="bold">
                        <tspan x="-14" y="329" fill="#373030"></tspan>
                        <tspan x="-14" y="351" font-size="12" fill="#F39325">Problem sets</tspan>
                    </text>
                    <path id="Line" d="M495.685714,413.5 L287.814286,413.5 L286.314286,413.5 L286.314286,410.5 L287.814286,410.5 L495.685714,410.5 L495.685714,402.5 L514.685714,412 L495.685714,421.5 L495.685714,413.5 Z" fill="#F39325" fill-rule="nonzero"></path>
                    <text id="Unit-4-Sudoku,-Finde" font-family="Lato-Bold, Lato" font-size="18" font-weight="bold" fill="#373030">
                        <tspan x="288" y="255"></tspan>
                        <tspan x="288" y="277" font-size="30">Unit 4</tspan>
                        <tspan x="370.665" y="277"></tspan>
                        <tspan x="288" y="313" font-size="15">Sudoku, Finder, </tspan>
                        <tspan x="288" y="331" font-size="15">Music, Whodunit, </tspan>
                        <tspan x="288" y="349" font-size="15">Recover, Resize</tspan>
                        <tspan x="288" y="367" font-size="15"></tspan>
                    </text>
                    <path id="Line" d="M718.685714,413.5 L510.814286,413.5 L509.314286,413.5 L509.314286,410.5 L510.814286,410.5 L718.685714,410.5 L718.685714,402.5 L737.685714,412 L718.685714,421.5 L718.685714,413.5 Z" fill="#F39325" fill-rule="nonzero"></path>
                    <text id="Final-project-Kuriam" font-family="Lato-Bold, Lato" font-size="15" font-weight="bold" fill="#373030">
                        <tspan x="511" y="252"></tspan>
                        <tspan x="511" y="270" font-size="30">Final project</tspan>
                        <tspan x="511" y="306">Kuriami projektai su C </tspan>
                        <tspan x="511" y="324">programavimo kalba</tspan>
                    </text>
                    <path id="Line" d="M268.685714,413.5 L60.8142857,413.5 L59.3142857,413.5 L59.3142857,410.5 L60.8142857,410.5 L268.685714,410.5 L268.685714,402.5 L287.685714,412 L268.685714,421.5 L268.685714,413.5 Z" fill="#F39325" fill-rule="nonzero"></path>
                    <text id="iki-kovo-1d." font-family="Lato-Bold, Lato" font-size="15" font-weight="bold" fill="#373030">
                        <tspan x="103" y="437">iki kovo 1d.</tspan>
                    </text>
                    <text id="iki-gegužės-1d." font-family="Lato-Bold, Lato" font-size="15" font-weight="bold" fill="#373030">
                        <tspan x="316" y="437">iki gegužės 1d.</tspan>
                    </text>
                    <path id="Line" d="M495.685714,413.5 L287.814286,413.5 L286.314286,413.5 L286.314286,410.5 L287.814286,410.5 L495.685714,410.5 L495.685714,402.5 L514.685714,412 L495.685714,421.5 L495.685714,413.5 Z" fill="#F39325" fill-rule="nonzero"></path>
                    <path id="Line" d="M718.685714,413.5 L510.814286,413.5 L509.314286,413.5 L509.314286,410.5 L510.814286,410.5 L718.685714,410.5 L718.685714,402.5 L737.685714,412 L718.685714,421.5 L718.685714,413.5 Z" fill="#F39325" fill-rule="nonzero"></path>
                    <text id="iki-birželio-15d." font-family="Lato-Bold, Lato" font-size="15" font-weight="bold" fill="#373030">
                        <tspan x="544" y="437">iki birželio 15d</tspan>
                        <tspan x="641.815" y="437" letter-spacing="-1.68992075">.</tspan>
                    </text>
                    <path d="M785.5,42.5 L867.5,42.5" id="Line-3" stroke="#F39325" stroke-width="3" stroke-linecap="square"></path>
                </g>
                <text id="B" font-family="Lato-Bold, Lato" font-size="18" font-weight="bold" fill="#FFFFFF">
                    <tspan x="320" y="18">B</tspan>
                </text>
            </g>
        </g>
    </g>
</svg>