<?xml version="1.0" encoding="UTF-8"?>
<svg width="859px" height="483px" viewBox="0 0 859 483" version="1.1" xmlns="http://www.w3.org/2000/svg" xmlns:xlink="http://www.w3.org/1999/xlink">
    <!-- Generator: Sketch 52.2 (67145) - http://www.bohemiancoding.com/sketch -->
    <title>Group 3</title>
    <desc>Created with Sketch.</desc>
    <g id="Welcome" stroke="none" stroke-width="1" fill="none" fill-rule="evenodd">
        <g id="Desktop" transform="translate(-75.000000, -501.000000)">
            <g id="Group-3" transform="translate(50.000000, 497.000000)">
                <g id="Group-2" transform="translate(0.000000, 25.000000)">
                    <path id="Line" d="M268.685714,176.5 L60.8142857,176.5 L59.3142857,176.5 L59.3142857,173.5 L60.8142857,173.5 L268.685714,173.5 L268.685714,165.5 L287.685714,175 L268.685714,184.5 L268.685714,176.5 Z" fill="#F39325" fill-rule="nonzero"></path>
                    <text id="Unit-A-Calc-2.0,-Lea" font-family="Lato-Heavy, Lato" font-size="18" font-weight="600" fill="#373030">
                        <tspan x="61" y="18"></tspan>
                        <tspan x="61" y="40" font-size="30">Unit A</tspan>
                        <tspan x="147.685" y="40"></tspan>
                        <tspan x="61" y="76" font-size="15">Calc 2.0, Leaky, </tspan>
                        <tspan x="61" y="94" font-size="15">Autocomplete, Decisions, </tspan>
                        <tspan x="61" y="112" font-size="15">Misspellings</tspan>
                    </text>
                    <text id="TEST" font-family="Lato-Black, Lato" font-size="18" font-weight="700" fill="#373030">
                        <tspan x="210" y="193"></tspan>
                        <tspan x="210" y="215" font-size="30">TEST</tspan>
                        <tspan x="280.35" y="215" font-size="15"></tspan>
                    </text>
                    <path d="M284.185714,60 L285,223.5" id="Line-2" stroke="#F39325" stroke-width="5" stroke-linecap="square"></path>
                    <text id="QUIZ" font-family="Lato-Black, Lato" font-size="18" font-weight="700" fill="#373030">
                        <tspan x="203" y="423"></tspan>
                        <tspan x="203" y="445" font-size="30">QUIZ</tspan>
                        <tspan x="277.52" y="445" font-size="15"></tspan>
                    </text>
                    <path d="M284.185714,292 L285,455.5" id="Line-2" stroke="#FFC000" stroke-width="5" stroke-linecap="square"></path>
                    <text id="Problem-sets" transform="translate(25.000000, 99.000000) rotate(-90.000000) translate(-25.000000, -99.000000) " font-family="Lato-Bold, Lato" font-size="18" font-weight="bold">
                        <tspan x="-14" y="92" fill="#373030"></tspan>
                        <tspan x="-14" y="114" font-size="12" fill="#F39325">Problem sets</tspan>
                    </text>
                    <path id="Line" d="M495.685714,176.5 L287.814286,176.5 L286.314286,176.5 L286.314286,173.5 L287.814286,173.5 L495.685714,173.5 L495.685714,165.5 L514.685714,175 L495.685714,184.5 L495.685714,176.5 Z" fill="#F39325" fill-rule="nonzero"></path>
                    <text id="Unit-B-Blockdude,-Hu" font-family="Lato-Bold, Lato" font-size="18" font-weight="bold" fill="#373030">
                        <tspan x="288" y="18"></tspan>
                        <tspan x="288" y="40" font-size="30">Unit B</tspan>
                        <tspan x="373.02" y="40"></tspan>
                        <tspan x="288" y="76" font-size="15">Blockdude, Huff, </tspan>
                        <tspan x="288" y="94" font-size="15">Puff, </tspan>
                        <tspan x="288" y="112" font-size="15">Degrees of Scalability, </tspan>
                        <tspan x="288" y="130" font-size="15">Server</tspan>
                    </text>
                    <path id="Line" d="M718.685714,176.5 L510.814286,176.5 L509.314286,176.5 L509.314286,173.5 L510.814286,173.5 L718.685714,173.5 L718.685714,165.5 L737.685714,175 L718.685714,184.5 L718.685714,176.5 Z" fill="#F39325" fill-rule="nonzero"></path>
                    <text id="Unit-5-Be-the-Teache" font-family="Lato-Bold, Lato" font-size="15" font-weight="bold" fill="#373030">
                        <tspan x="511" y="15"></tspan>
                        <tspan x="511" y="33" font-family="Lato-Black, Lato" font-size="30" font-weight="700">Unit 5</tspan>
                        <tspan x="594.43" y="33" font-size="30"></tspan>
                        <tspan x="511" y="69">Be the Teacher, </tspan>
                        <tspan x="511" y="87">Defender of the Web, </tspan>
                        <tspan x="511" y="105">&lt;/Unit5&gt;</tspan>
                    </text>
                    <path id="Line" d="M268.685714,176.5 L60.8142857,176.5 L59.3142857,176.5 L59.3142857,173.5 L60.8142857,173.5 L268.685714,173.5 L268.685714,165.5 L287.685714,175 L268.685714,184.5 L268.685714,176.5 Z" fill="#F39325" fill-rule="nonzero"></path>
                    <text id="iki-spalio-15-d." font-family="Lato-Bold, Lato" font-size="15" font-weight="bold" fill="#373030">
                        <tspan x="103" y="200">iki spalio 15 d.</tspan>
                    </text>
                    <text id="iki-gruodžio-1d." font-family="Lato-Bold, Lato" font-size="15" font-weight="bold" fill="#373030">
                        <tspan x="316" y="200">iki gruodžio 1d.</tspan>
                    </text>
                    <path id="Line" d="M495.685714,176.5 L287.814286,176.5 L286.314286,176.5 L286.314286,173.5 L287.814286,173.5 L495.685714,173.5 L495.685714,165.5 L514.685714,175 L495.685714,184.5 L495.685714,176.5 Z" fill="#FFC000" fill-rule="nonzero"></path>
                    <path id="Line" d="M718.685714,176.5 L510.814286,176.5 L509.314286,176.5 L509.314286,173.5 L510.814286,173.5 L718.685714,173.5 L718.685714,165.5 L737.685714,175 L718.685714,184.5 L718.685714,176.5 Z" fill="#FFC000" fill-rule="nonzero"></path>
                    <text id="iki-vasario-1d." font-family="Lato-Bold, Lato" font-size="15" font-weight="bold" fill="#373030">
                        <tspan x="544" y="200">iki vasario 1d</tspan>
                        <tspan x="631.9" y="200" letter-spacing="-1.68992075">.</tspan>
                    </text>
                    <path id="Line" d="M268.685714,413.5 L60.8142857,413.5 L59.3142857,413.5 L59.3142857,410.5 L60.8142857,410.5 L268.685714,410.5 L268.685714,402.5 L287.685714,412 L268.685714,421.5 L268.685714,413.5 Z" fill="#F39325" fill-rule="nonzero"></path>
                    <text id="Unit-6-Sentimental," font-family="Lato-Bold, Lato" font-size="18" font-weight="bold" fill="#373030">
                        <tspan x="61" y="255"></tspan>
                        <tspan x="61" y="277" font-size="30">Unit 6</tspan>
                        <tspan x="143.665" y="277"></tspan>
                        <tspan x="61" y="313" font-size="15">Sentimental, Similiarities, </tspan>
                        <tspan x="61" y="331" font-size="15">CS50 finance, Mashup</tspan>
                    </text>
                    <text id="Problem-sets" transform="translate(25.000000, 336.000000) rotate(-90.000000) translate(-25.000000, -336.000000) " font-family="Lato-Bold, Lato" font-size="18" font-weight="bold">
                        <tspan x="-14" y="329" fill="#373030"></tspan>
                        <tspan x="-14" y="351" font-size="12" fill="#F39325">Problem sets</tspan>
                    </text>
                    <path id="Line" d="M495.685714,413.5 L287.814286,413.5 L286.314286,413.5 L286.314286,410.5 L287.814286,410.5 L495.685714,410.5 L495.685714,402.5 L514.685714,412 L495.685714,421.5 L495.685714,413.5 Z" fill="#F39325" fill-rule="nonzero"></path>
                    <text id="Final-project-Kuriam" font-family="Lato-Bold, Lato" font-size="18" font-weight="bold" fill="#373030">
                        <tspan x="288" y="255"></tspan>
                        <tspan x="288" y="277" font-size="30">Final project</tspan>
                        <tspan x="454.215" y="277"></tspan>
                        <tspan x="288" y="313" font-size="15">Kuriami projektai </tspan>
                        <tspan x="288" y="331" font-size="15">pasitelkiant pasirinktą </tspan>
                        <tspan x="288" y="349" font-size="15">technologiją</tspan>
                        <tspan x="288" y="367" font-size="15"></tspan>
                    </text>
                    <path id="Line" d="M268.685714,413.5 L60.8142857,413.5 L59.3142857,413.5 L59.3142857,410.5 L60.8142857,410.5 L268.685714,410.5 L268.685714,402.5 L287.685714,412 L268.685714,421.5 L268.685714,413.5 Z" fill="#FFC000" fill-rule="nonzero"></path>
                    <text id="iki-gegužės-1-d." font-family="Lato-Bold, Lato" font-size="15" font-weight="bold" fill="#373030">
                        <tspan x="103" y="437">iki gegužės 1 d.</tspan>
                    </text>
                    <text id="iki-birželio-15-d." font-family="Lato-Bold, Lato" font-size="15" font-weight="bold" fill="#373030">
                        <tspan x="316" y="437">iki birželio 15 d.</tspan>
                    </text>
                    <path id="Line" d="M495.685714,413.5 L287.814286,413.5 L286.314286,413.5 L286.314286,410.5 L287.814286,410.5 L495.685714,410.5 L495.685714,402.5 L514.685714,412 L495.685714,421.5 L495.685714,413.5 Z" fill="#FFC000" fill-rule="nonzero"></path>
                    <text id="WEB-technologijos" font-family="Lato-Bold, Lato" font-size="12" font-weight="bold" fill="#373030">
                        <tspan x="782" y="60">WEB technologijos</tspan>
                    </text>
                    <path d="M785.5,33 L867.5,33" id="Line-3" stroke="#FFC000" stroke-width="3" stroke-linecap="square"></path>
                </g>
                <text id="D" font-family="Lato-Black, Lato" font-size="18" font-weight="700" fill="#FFFFFF">
                    <tspan x="218" y="18">D</tspan>
                </text>
            </g>
        </g>
    </g>
</svg>